<?xml version="1.0" standalone="no"?>
<!DOCTYPE svg PUBLIC "-//W3C//DTD SVG 20010904//EN"
 "http://www.w3.org/TR/2001/REC-SVG-20010904/DTD/svg10.dtd">
<svg version="1.0" xmlns="http://www.w3.org/2000/svg"
 width="1024.000000pt" height="1024.000000pt" viewBox="0 0 1024.000000 1024.000000"
 preserveAspectRatio="xMidYMid meet">
<metadata>
Created by potrace 1.14, written by Peter Selinger 2001-2017
</metadata>
<g transform="translate(0.000000,1024.000000) scale(0.100000,-0.100000)"
fill="#000000" stroke="none">
<path d="M8018 10213 l-3 -28 -337 -3 -338 -2 0 -145 0 -145 -128 0 -128 0 1
-137 0 -138 -142 -3 -143 -3 0 -129 0 -130 -967 2 -968 3 -3 128 -3 127 -129
0 -130 0 0 145 0 145 -150 0 -150 0 0 140 0 140 -477 0 -478 0 3 -1017 c2
-560 0 -1046 -3 -1080 l-7 -63 -134 0 -134 0 0 -300 0 -300 -175 0 -175 0 0
-585 0 -585 153 0 c83 0 162 -3 175 -6 22 -6 22 -9 22 -160 l0 -154 -1330 0
-1330 0 0 -170 0 -170 -145 0 -145 0 0 -1735 0 -1734 143 -3 142 -3 3 -272 2
-273 150 0 149 0 3 -152 3 -153 2942 -3 2942 -2 3 152 3 153 153 3 152 3 0
124 0 125 213 2 212 3 0 140 0 140 -202 3 -203 2 0 -135 0 -135 -160 0 -160 0
0 135 0 135 -325 0 -325 0 0 140 0 140 120 0 120 0 0 155 0 155 203 2 202 3 0
115 0 115 -105 3 c-58 2 -151 0 -207 -3 l-103 -7 3 -106 2 -107 -117 -3 -118
-3 0 176 c0 103 4 184 10 196 10 18 26 19 425 19 l415 0 0 -90 0 -90 263 -2
262 -3 0 -100 0 -100 -202 -3 -203 -2 0 -155 0 -155 205 0 205 0 0 -140 0
-140 240 0 239 0 3 138 3 137 168 3 167 2 0 155 0 155 155 0 156 0 -3 108 -3
107 -147 3 -147 3 -3 -106 -3 -106 -160 -2 -160 -2 -3 -152 -3 -153 -248 0
-249 0 -6 26 c-4 15 -6 79 -5 143 l1 116 247 5 246 5 3 108 3 107 164 0 165 0
0 90 0 90 653 -2 652 -3 3 -192 2 -193 -302 -2 -303 -3 -3 -148 -3 -147 -195
0 -195 0 3 -147 3 -148 123 -3 122 -3 0 -134 0 -135 -125 0 -125 0 0 130 0
130 -155 0 -155 0 0 -136 0 -136 -155 4 c-132 3 -155 1 -155 -12 -1 -8 -2 -67
-3 -130 l-2 -115 -127 -3 -128 -3 0 -144 0 -144 -122 -3 -123 -3 -3 -127 -3
-128 -1237 -2 -1237 -3 0 -145 0 -145 860 4 c473 2 938 0 1033 -4 l172 -8 0
-118 0 -119 -1030 0 -1030 0 0 -160 0 -160 -135 0 -135 0 0 135 0 135 114 0
c146 0 146 0 146 165 l0 116 -132 -3 -133 -3 -3 -139 -3 -138 -137 3 -137 4
-3 -137 -3 -138 126 0 125 0 0 -80 0 -80 1630 0 1630 0 0 85 0 85 165 0 164 0
3 128 3 127 203 3 202 2 0 145 0 145 278 0 c209 0 281 3 291 13 11 9 14 9 18
0 3 -7 11 -13 19 -13 11 0 14 27 14 145 l0 145 140 0 139 0 3 128 3 127 178 3
177 2 0 280 0 280 135 0 134 0 3 143 3 142 73 3 72 3 0 294 0 295 -73 0 -74 0
-7 134 c-3 74 -3 159 0 190 l7 56 73 0 74 0 0 925 0 925 -75 0 -75 0 -2 323
-3 322 -132 3 -133 3 -2 167 -3 167 -172 3 -173 2 0 160 0 160 -140 0 -140 0
0 173 c0 94 -3 358 -7 585 l-6 412 -154 0 -153 0 0 305 0 305 -155 0 -155 0 0
1105 0 1105 -269 0 -270 0 -3 -27z m-4163 -603 c11 -5 14 -9 8 -9 -10 -1 -13
-98 -15 -433 l-3 -433 -102 -3 -103 -3 0 446 0 445 98 -1 c53 0 106 -4 117 -9z
m178 -7 c-7 -2 -21 -2 -30 0 -10 3 -4 5 12 5 17 0 24 -2 18 -5z m3813 0 c-3
-4 -29 -6 -57 -4 -82 4 -179 -9 -179 -25 0 -8 -4 -14 -9 -14 -4 0 -6 11 -3 25
l4 25 126 0 c69 0 122 -3 118 -7z m-3809 -230 c-2 -16 -4 -5 -4 22 0 28 2 40
4 28 2 -13 2 -35 0 -50z m3810 -15 c-3 -8 -6 -5 -6 6 -1 11 2 17 5 13 3 -3 4
-12 1 -19z m-255 -130 c-2 -68 -6 -125 -7 -127 -2 -2 -56 -3 -120 -2 -89 2
-115 -1 -115 -11 0 -9 -3 -9 -10 2 -5 8 -10 68 -10 132 l0 117 133 4 c72 1
132 4 133 5 0 1 -2 -53 -4 -120z m-3322 -148 c0 -182 -3 -260 -11 -260 -8 0
-10 74 -8 253 l4 252 -93 1 c-51 1 -96 5 -99 8 -4 3 42 6 100 6 l107 0 0 -260z
m2650 -111 l0 -127 -342 -7 c-189 -4 -395 -5 -458 -2 -63 4 -431 6 -817 7
l-703 0 0 125 0 125 543 2 c298 2 820 3 1160 3 l617 1 0 -127z m427 69 c-3 -8
-6 -5 -6 6 -1 11 2 17 5 13 3 -3 4 -12 1 -19z m0 -95 c-2 -16 -4 -3 -4 27 0
30 2 43 4 28 2 -16 2 -40 0 -55z m-3480 -130 c-3 -10 -5 -2 -5 17 0 19 2 27 5
18 2 -10 2 -26 0 -35z m394 -58 c5 4 9 2 9 -4 0 -5 -65 -10 -165 -11 -91 0
-165 3 -165 7 0 5 68 6 150 4 l150 -3 1 28 2 29 4 -28 c2 -15 9 -25 14 -22z
m3167 -2 c-16 -2 -40 -2 -55 0 -16 2 -3 4 27 4 30 0 43 -2 28 -4z m240 0 c-26
-2 -71 -2 -100 0 -29 2 -8 3 47 3 55 0 79 -1 53 -3z m-3800 -540 l2 -193 -115
0 -115 0 0 -135 0 -135 -140 0 -140 0 0 135 0 135 140 0 140 0 0 195 0 196
113 -3 112 -3 3 -192z m812 -493 l0 -300 -195 0 -195 0 0 300 0 300 195 0 195
0 0 -300z m2250 0 l0 -300 -165 0 -165 0 0 300 0 300 165 0 165 0 0 -300z
m-3590 -425 l0 -125 -135 0 -135 0 0 125 0 125 135 0 135 0 0 -125z m2620
-225 l0 -110 -340 0 -340 0 0 110 0 110 340 0 340 0 0 -110z m-1920 -160 l0
-140 -197 2 -198 3 -3 124 c-1 69 0 131 2 138 4 10 49 13 201 13 l195 0 0
-140z m2348 8 l3 -128 104 0 105 0 0 -120 0 -120 105 0 105 0 0 -310 0 -310
-105 0 -106 0 3 -157 3 -158 98 -3 97 -3 0 -95 0 -95 -102 3 -103 3 -3 83 -3
82 -454 0 -455 0 0 171 0 171 -540 -4 -540 -4 0 313 0 313 130 0 130 0 1 228
c1 125 1 232 0 238 -2 14 45 24 109 24 40 0 49 -4 60 -25 13 -24 17 -25 117
-25 l103 0 0 -95 0 -94 103 -3 102 -3 3 -187 2 -188 -100 0 -100 0 0 -85 0
-85 -200 0 -200 0 0 -100 0 -100 205 0 205 0 0 94 0 94 28 3 c15 2 170 2 345
1 l317 -4 0 -94 0 -94 225 0 225 0 0 100 0 100 -227 2 -228 3 -3 77 -3 76
-117 7 c-64 3 -126 7 -137 8 -19 2 -20 10 -23 185 l-2 182 215 0 c214 0 215 0
219 23 9 40 46 230 46 234 0 2 53 2 118 1 l117 -3 3 -127z m1512 -8 l0 -140
-285 0 -285 0 0 133 c0 74 3 137 7 140 3 4 132 7 285 7 l278 0 0 -140z m-3860
-492 c0 -68 -5 -130 -10 -138 -6 -10 -10 -11 -10 -3 0 9 -48 13 -187 15 l-188
3 -3 123 -3 122 201 0 200 0 0 -122z m3978 77 c2 -22 1 -86 -3 -142 l-7 -103
-321 0 c-177 0 -328 4 -334 8 -14 9 -31 237 -20 266 6 15 41 16 344 14 l338
-3 3 -40z m-4230 -232 c-21 -2 -55 -2 -75 0 -21 2 -4 4 37 4 41 0 58 -2 38 -4z
m1670 -648 l212 -7 0 -1754 0 -1754 -2627 2 -2628 3 -3 400 c-2 220 0 1009 4
1752 l6 1353 1082 2 c594 2 1680 4 2411 6 732 2 1426 0 1543 -3z m1472 -675
l0 -230 -160 0 -160 0 0 -130 0 -130 145 0 144 0 3 113 c3 99 5 112 21 111 9
0 382 -1 827 -2 l811 -2 -3 -107 -3 -108 -815 0 -815 0 -3 -118 -3 -118 -157
3 -157 3 -3 113 -3 112 -104 0 -105 0 0 -90 0 -90 -100 0 -100 0 0 -135 0
-136 103 3 102 3 3 103 3 102 99 0 100 0 0 -110 0 -110 -105 0 -105 0 0 -220
0 -221 -97 3 -98 3 -3 218 -2 217 -115 0 -115 0 0 590 0 590 485 0 485 0 0
-230z m2218 -112 l3 -118 -206 0 -205 0 0 120 0 120 203 -2 202 -3 3 -117z
m-1308 -1813 l0 -85 -250 0 -250 0 0 85 0 85 250 0 250 0 0 -85z m-2423 -1195
l1183 0 0 -125 0 -125 -2945 0 -2945 0 0 125 0 125 1358 3 c746 2 1539 2 1761
0 222 -2 937 -3 1588 -3z m-800 -1167 c-3 -10 -5 -4 -5 12 0 17 2 24 5 18 2
-7 2 -21 0 -30z"/>
<path d="M4907 6913 c-4 -3 -7 -28 -7 -55 l0 -48 65 0 65 0 0 55 0 55 -58 0
c-32 0 -62 -3 -65 -7z"/>
<path d="M638 5154 c-5 -4 -8 -358 -8 -786 0 -615 3 -778 13 -780 6 -1 353 -2
770 -2 l757 -1 2 50 c5 122 3 335 -3 335 -3 0 -2 28 3 62 4 34 6 114 4 178 -3
63 -5 250 -6 416 l-1 300 -27 -2 c-88 -10 -181 -10 -175 -1 3 6 1 7 -5 3 -7
-4 -19 -3 -28 2 -13 7 -17 28 -18 110 0 55 -4 104 -9 108 -10 10 -1260 18
-1269 8z m919 -271 c-3 -10 -5 -4 -5 12 0 17 2 24 5 18 2 -7 2 -21 0 -30z
m-844 -620 c-7 -2 -19 -2 -25 0 -7 3 -2 5 12 5 14 0 19 -2 13 -5z m1357 -95
l-5 -93 -3 79 c-3 70 1 106 10 106 2 0 1 -42 -2 -92z m-1233 -144 c-3 -3 -12
-4 -19 -1 -8 3 -5 6 6 6 11 1 17 -2 13 -5z m1233 -14 c0 -5 -2 -10 -4 -10 -3
0 -8 5 -11 10 -3 6 -1 10 4 10 6 0 11 -4 11 -10z m-207 -7 c-7 -2 -19 -2 -25
0 -7 3 -2 5 12 5 14 0 19 -2 13 -5z m-710 -10 c-13 -2 -35 -2 -50 0 -16 2 -5
4 22 4 28 0 40 -2 28 -4z m235 0 c-10 -2 -26 -2 -35 0 -10 3 -2 5 17 5 19 0
27 -2 18 -5z m320 0 c-10 -2 -26 -2 -35 0 -10 3 -2 5 17 5 19 0 27 -2 18 -5z
m49 1 c-3 -3 -12 -4 -19 -1 -8 3 -5 6 6 6 11 1 17 -2 13 -5z m-790 -151 c-2
-27 -3 -5 -3 47 0 52 1 74 3 48 2 -27 2 -69 0 -95z m781 -250 c-10 -2 -26 -2
-35 0 -10 3 -2 5 17 5 19 0 27 -2 18 -5z"/>
<path d="M4327 4933 c-4 -3 -7 -69 -7 -145 l0 -138 140 0 140 0 0 145 0 145
-133 0 c-74 0 -137 -3 -140 -7z"/>
<path d="M2230 4212 c0 -4 17 -6 38 -4 58 5 62 10 10 11 -27 1 -48 -3 -48 -7z"/>
<path d="M2400 4210 c0 -5 18 -13 39 -16 27 -4 41 -12 44 -25 3 -11 2 -19 -1
-20 -4 0 -15 -2 -24 -4 -10 -2 -20 1 -24 6 -3 5 -12 9 -20 9 -8 0 -13 -4 -10
-9 4 -5 1 -11 -5 -13 -9 -3 -9 -10 0 -27 7 -13 18 -20 27 -17 7 3 13 2 13 -2
-1 -4 -1 -22 0 -39 l1 -33 125 0 125 0 0 100 0 100 -145 0 c-89 0 -145 -4
-145 -10z"/>
<path d="M2257 4023 c-4 -3 -7 -11 -7 -17 0 -6 5 -5 12 2 6 6 9 14 7 17 -3 3
-9 2 -12 -2z"/>
<path d="M2449 3787 c-1 -1 -3 -120 -6 -264 l-5 -263 456 0 456 0 0 265 0 265
-450 0 c-247 -1 -450 -2 -451 -3z"/>
<path d="M3750 3400 l0 -141 103 3 102 3 3 138 3 137 -106 0 -105 0 0 -140z"/>
<path d="M4310 3400 l0 -140 110 0 110 0 0 140 0 140 -110 0 -110 0 0 -140z"/>
<path d="M4867 3533 c-4 -3 -7 -66 -7 -140 l0 -133 110 0 110 0 0 140 0 140
-103 0 c-57 0 -107 -3 -110 -7z"/>
<path d="M2271 3338 c0 -15 -8 -34 -17 -43 -9 -9 -14 -18 -11 -21 10 -11 38
45 34 68 -4 21 -4 21 -6 -4z"/>
<path d="M4617 3104 c-4 -4 -7 -49 -7 -101 l0 -93 130 0 131 0 -3 98 -3 97
-121 3 c-66 1 -123 -1 -127 -4z"/>
<path d="M4030 3005 l0 -96 138 3 137 3 0 90 0 90 -137 3 -138 3 0 -96z"/>
<path d="M4300 2635 l0 -85 140 0 140 0 0 85 0 85 -140 0 -140 0 0 -85z"/>
<path d="M6610 2260 l0 -140 150 0 150 0 0 140 0 140 -150 0 -150 0 0 -140z"/>
<path d="M10080 80 l0 -80 80 0 80 0 0 80 0 80 -80 0 -80 0 0 -80z"/>
</g>
</svg>
